<svg width="847" height="185" viewBox="0 0 847 185" fill="none" xmlns="http://www.w3.org/2000/svg">
<path d="M81.3466 3.0909H86.9375V134.477C86.8793 146.591 84.8118 156.317 80.7351 163.655C76.7166 170.935 71.4169 176.234 64.8359 179.554C58.3132 182.815 51.2372 184.446 43.608 184.446C35.3963 184.446 28 182.874 21.419 179.729C14.8963 176.584 9.71307 172.303 5.86932 166.887C2.08381 161.471 0.220171 155.327 0.278409 148.455H5.86932C5.81108 154.278 7.44176 159.491 10.7614 164.092C14.081 168.634 18.5945 172.245 24.3018 174.924C30.0675 177.545 36.5028 178.855 43.608 178.855C50.1307 178.855 56.2457 177.457 61.9531 174.662C67.7188 171.866 72.3778 167.237 75.9304 160.772C79.483 154.308 81.2884 145.543 81.3466 134.477V3.0909ZM146.002 182H140.062L204.008 3.0909H211.695L275.641 182H269.701L208.201 10.0795H207.502L146.002 182ZM166.269 115.957H249.434V121.548H166.269V115.957ZM328.787 182V3.0909H381.202C391.219 3.0909 400.071 5.21662 407.759 9.46804C415.504 13.7195 421.561 19.6598 425.929 27.2891C430.355 34.9183 432.568 43.858 432.568 54.108C432.568 64.2415 430.355 73.1229 425.929 80.7521C421.561 88.3232 415.504 94.2344 407.759 98.4858C400.071 102.679 391.219 104.776 381.202 104.776H331.583V99.1847H381.202C390.171 99.1847 398.091 97.321 404.963 93.5938C411.835 89.8665 417.222 84.625 421.124 77.8693C425.026 71.1136 426.977 63.1932 426.977 54.108C426.977 44.9645 425.026 36.9858 421.124 30.1719C417.222 23.358 411.835 18.0874 404.963 14.3601C398.091 10.5746 390.171 8.68181 381.202 8.68181H334.378V182H328.787ZM396.926 100.582L440.955 182H434.665L390.637 100.582H396.926ZM480.735 3.0909L542.235 175.011H542.934L604.434 3.0909H610.374L546.428 182H538.741L474.795 3.0909H480.735ZM669.111 3.0909V182H663.52V3.0909H669.111ZM837.984 47.8182C837.111 35.5881 832.423 25.5419 823.92 17.6797C815.475 9.81747 804.322 5.88636 790.462 5.88636C781.376 5.88636 773.252 7.63351 766.089 11.1278C758.925 14.6221 753.276 19.4268 749.141 25.5419C745.006 31.5987 742.939 38.5582 742.939 46.4205C742.939 50.9631 743.696 55.1562 745.21 59C746.724 62.8438 749.025 66.3672 752.112 69.5703C755.256 72.7152 759.188 75.5689 763.905 78.1314C768.68 80.6356 774.271 82.8778 780.678 84.858L800.945 91.1477C808.69 93.5355 815.388 96.2145 821.037 99.1847C826.686 102.155 831.345 105.504 835.014 109.231C838.741 112.9 841.508 117.006 843.313 121.548C845.119 126.033 846.021 131.041 846.021 136.574C846.021 145.892 843.634 154.191 838.858 161.471C834.082 168.751 827.414 174.458 818.853 178.593C810.292 182.728 800.362 184.795 789.064 184.795C778.173 184.795 768.651 182.903 760.498 179.117C752.344 175.273 745.88 170.003 741.104 163.305C736.387 156.55 733.737 148.804 733.155 140.068H738.746C739.328 147.756 741.745 154.54 745.996 160.423C750.248 166.305 756.014 170.906 763.293 174.225C770.631 177.545 779.222 179.205 789.064 179.205C799.314 179.205 808.283 177.428 815.97 173.876C823.716 170.265 829.715 165.256 833.966 158.85C838.276 152.444 840.43 145.018 840.43 136.574C840.43 130.168 839.033 124.548 836.237 119.714C833.442 114.822 829.045 110.512 823.046 106.785C817.048 103.058 809.215 99.7088 799.547 96.7386L779.28 90.4489C765.244 86.0227 754.732 80.1697 747.744 72.8899C740.813 65.6101 737.348 56.7869 737.348 46.4205C737.348 37.6264 739.648 29.7642 744.249 22.8338C748.85 15.8452 755.14 10.3416 763.119 6.32314C771.156 2.30468 780.27 0.295452 790.462 0.295452C800.712 0.295452 809.71 2.3338 817.455 6.4105C825.201 10.4872 831.345 16.1072 835.888 23.2706C840.43 30.4339 842.993 38.6165 843.575 47.8182H837.984Z" fill="white"/>
</svg>
