<svg width="44" height="39" viewBox="0 0 44 39" fill="none" xmlns="http://www.w3.org/2000/svg">
<ellipse cx="15.5181" cy="1.29703" rx="1.30131" ry="1.29703" fill="#060D1D" fill-opacity="0.5"/>
<ellipse cx="22.0845" cy="1.29703" rx="1.30131" ry="1.29703" fill="#060D1D" fill-opacity="0.5"/>
<ellipse cx="28.6519" cy="1.29703" rx="1.30131" ry="1.29703" fill="#060D1D" fill-opacity="0.5"/>
<ellipse cx="8.9517" cy="7.27213" rx="1.30131" ry="1.29703" fill="#060D1D" fill-opacity="0.5"/>
<ellipse cx="15.5191" cy="7.27207" rx="1.61871" ry="1.61338" fill="#060D1D" fill-opacity="0.75"/>
<ellipse cx="22.0845" cy="7.27207" rx="1.61871" ry="1.61338" fill="#060D1D" fill-opacity="0.75"/>
<ellipse cx="28.6519" cy="7.27207" rx="1.61871" ry="1.61338" fill="#060D1D" fill-opacity="0.75"/>
<ellipse cx="35.2164" cy="7.27213" rx="1.30131" ry="1.29703" fill="#060D1D" fill-opacity="0.5"/>
<ellipse cx="2.38627" cy="13.2477" rx="1.30131" ry="1.29703" fill="#060D1D" fill-opacity="0.5"/>
<ellipse cx="8.95171" cy="13.2472" rx="1.61871" ry="1.61338" fill="#060D1D" fill-opacity="0.75"/>
<ellipse cx="15.5185" cy="13.2468" rx="1.82315" ry="1.81716" fill="#050D22"/>
<ellipse cx="22.0839" cy="13.2468" rx="1.82315" ry="1.81716" fill="#050D22"/>
<ellipse cx="28.6513" cy="13.2468" rx="1.82315" ry="1.81716" fill="#050D22"/>
<ellipse cx="35.2173" cy="13.2472" rx="1.61871" ry="1.61338" fill="#060D1D" fill-opacity="0.75"/>
<ellipse cx="41.7837" cy="13.2477" rx="1.30131" ry="1.29703" fill="#060D1D" fill-opacity="0.5"/>
<ellipse cx="2.38627" cy="19.2228" rx="1.30131" ry="1.29703" fill="#060D1D" fill-opacity="0.5"/>
<ellipse cx="8.95171" cy="19.2228" rx="1.61871" ry="1.61338" fill="#060D1D" fill-opacity="0.75"/>
<ellipse cx="15.5185" cy="19.2229" rx="1.82315" ry="1.81716" fill="#050D22"/>
<ellipse cx="22.0839" cy="19.2229" rx="1.82315" ry="1.81716" fill="#050D22"/>
<ellipse cx="28.6513" cy="19.2229" rx="1.82315" ry="1.81716" fill="#050D22"/>
<ellipse cx="35.2173" cy="19.2228" rx="1.61871" ry="1.61338" fill="#060D1D" fill-opacity="0.75"/>
<ellipse cx="41.7837" cy="19.2228" rx="1.30131" ry="1.29703" fill="#060D1D" fill-opacity="0.5"/>
<ellipse cx="2.38627" cy="25.1984" rx="1.30131" ry="1.29703" fill="#060D1D" fill-opacity="0.5"/>
<ellipse cx="8.95171" cy="25.1979" rx="1.61871" ry="1.61338" fill="#060D1D" fill-opacity="0.75"/>
<ellipse cx="15.5185" cy="25.198" rx="1.82315" ry="1.81716" fill="#050D22"/>
<ellipse cx="22.0839" cy="25.198" rx="1.82315" ry="1.81716" fill="#050D22"/>
<ellipse cx="28.6513" cy="25.198" rx="1.82315" ry="1.81716" fill="#050D22"/>
<ellipse cx="35.2173" cy="25.1979" rx="1.61871" ry="1.61338" fill="#060D1D" fill-opacity="0.75"/>
<ellipse cx="41.7837" cy="25.1984" rx="1.30131" ry="1.29703" fill="#060D1D" fill-opacity="0.5"/>
<ellipse cx="8.9517" cy="31.1735" rx="1.30131" ry="1.29703" fill="#060D1D" fill-opacity="0.5"/>
<ellipse cx="15.5191" cy="31.1734" rx="1.61871" ry="1.61338" fill="#060D1D" fill-opacity="0.75"/>
<ellipse cx="22.0845" cy="31.1734" rx="1.61871" ry="1.61338" fill="#060D1D" fill-opacity="0.75"/>
<ellipse cx="28.6519" cy="31.1734" rx="1.61871" ry="1.61338" fill="#060D1D" fill-opacity="0.75"/>
<ellipse cx="35.2164" cy="31.1735" rx="1.30131" ry="1.29703" fill="#060D1D" fill-opacity="0.5"/>
<ellipse cx="15.5181" cy="37.1486" rx="1.30131" ry="1.29703" fill="#060D1D" fill-opacity="0.5"/>
<ellipse cx="22.0845" cy="37.1486" rx="1.30131" ry="1.29703" fill="#060D1D" fill-opacity="0.5"/>
<ellipse cx="28.6519" cy="37.1486" rx="1.30131" ry="1.29703" fill="#060D1D" fill-opacity="0.5"/>
<ellipse cx="15.3501" cy="1.58317" rx="1.30131" ry="1.29703" fill="white" fill-opacity="0.5"/>
<ellipse cx="21.9165" cy="1.58317" rx="1.30131" ry="1.29703" fill="white" fill-opacity="0.5"/>
<ellipse cx="28.482" cy="1.58317" rx="1.30131" ry="1.29703" fill="white" fill-opacity="0.5"/>
<ellipse cx="8.78373" cy="7.55875" rx="1.30131" ry="1.29703" fill="white" fill-opacity="0.5"/>
<ellipse cx="15.3501" cy="7.55821" rx="1.6187" ry="1.61338" fill="white" fill-opacity="0.75"/>
<ellipse cx="21.9156" cy="7.55821" rx="1.6187" ry="1.61338" fill="white" fill-opacity="0.75"/>
<ellipse cx="28.482" cy="7.55821" rx="1.6187" ry="1.61338" fill="white" fill-opacity="0.75"/>
<ellipse cx="35.0484" cy="7.55826" rx="1.30131" ry="1.29703" fill="white" fill-opacity="0.5"/>
<ellipse cx="2.21732" cy="13.5334" rx="1.30131" ry="1.29703" fill="white" fill-opacity="0.5"/>
<ellipse cx="8.78374" cy="13.5338" rx="1.6187" ry="1.61338" fill="white" fill-opacity="0.75"/>
<ellipse cx="15.3495" cy="13.533" rx="1.82315" ry="1.81716" fill="white"/>
<ellipse cx="21.9159" cy="13.533" rx="1.82315" ry="1.81716" fill="white"/>
<ellipse cx="28.4823" cy="13.533" rx="1.82315" ry="1.81716" fill="white"/>
<ellipse cx="35.0484" cy="13.5338" rx="1.6187" ry="1.61338" fill="white" fill-opacity="0.75"/>
<ellipse cx="41.6148" cy="13.5334" rx="1.30131" ry="1.29703" fill="white" fill-opacity="0.5"/>
<ellipse cx="2.21732" cy="19.5089" rx="1.30131" ry="1.29703" fill="white" fill-opacity="0.5"/>
<ellipse cx="8.78374" cy="19.5089" rx="1.6187" ry="1.61338" fill="white" fill-opacity="0.75"/>
<ellipse cx="15.3495" cy="19.5091" rx="1.82315" ry="1.81716" fill="white"/>
<ellipse cx="21.9159" cy="19.5091" rx="1.82315" ry="1.81716" fill="white"/>
<ellipse cx="28.4823" cy="19.5091" rx="1.82315" ry="1.81716" fill="white"/>
<ellipse cx="35.0484" cy="19.5089" rx="1.6187" ry="1.61338" fill="white" fill-opacity="0.75"/>
<ellipse cx="41.6148" cy="19.5089" rx="1.30131" ry="1.29703" fill="white" fill-opacity="0.5"/>
<ellipse cx="2.21732" cy="25.484" rx="1.30131" ry="1.29703" fill="white" fill-opacity="0.5"/>
<ellipse cx="8.78374" cy="25.4845" rx="1.6187" ry="1.61338" fill="white" fill-opacity="0.75"/>
<ellipse cx="15.3495" cy="25.4837" rx="1.82315" ry="1.81716" fill="white"/>
<ellipse cx="21.9159" cy="25.4837" rx="1.82315" ry="1.81716" fill="white"/>
<ellipse cx="28.4823" cy="25.4837" rx="1.82315" ry="1.81716" fill="white"/>
<ellipse cx="35.0484" cy="25.4845" rx="1.6187" ry="1.61338" fill="white" fill-opacity="0.75"/>
<ellipse cx="41.6148" cy="25.484" rx="1.30131" ry="1.29703" fill="white" fill-opacity="0.5"/>
<ellipse cx="8.78373" cy="31.4591" rx="1.30131" ry="1.29703" fill="white" fill-opacity="0.5"/>
<ellipse cx="15.3501" cy="31.4591" rx="1.6187" ry="1.61338" fill="white" fill-opacity="0.75"/>
<ellipse cx="21.9156" cy="31.4591" rx="1.6187" ry="1.61338" fill="white" fill-opacity="0.75"/>
<ellipse cx="28.482" cy="31.4591" rx="1.6187" ry="1.61338" fill="white" fill-opacity="0.75"/>
<ellipse cx="35.0484" cy="31.4591" rx="1.30131" ry="1.29703" fill="white" fill-opacity="0.5"/>
<ellipse cx="15.3501" cy="37.4347" rx="1.30131" ry="1.29703" fill="white" fill-opacity="0.5"/>
<ellipse cx="21.9165" cy="37.4347" rx="1.30131" ry="1.29703" fill="white" fill-opacity="0.5"/>
<ellipse cx="28.482" cy="37.4347" rx="1.30131" ry="1.29703" fill="white" fill-opacity="0.5"/>
</svg>
